<svg width="22" height="22" viewBox="0 0 22 22" fill="none" xmlns="http://www.w3.org/2000/svg">
<path d="M15.1013 4.95742L17.0428 6.898L15.1013 4.95742ZM16.3498 3.24784L11.1001 8.49759C10.8288 8.76846 10.6438 9.11357 10.5684 9.48942L10.0835 11.9168L12.5108 11.4309C12.8867 11.3558 13.2313 11.1715 13.5027 10.9002L18.7524 5.65042C18.9102 5.49266 19.0353 5.30538 19.1207 5.09926C19.2061 4.89314 19.25 4.67223 19.25 4.44913C19.25 4.22603 19.2061 4.00511 19.1207 3.79899C19.0353 3.59287 18.9102 3.40559 18.7524 3.24784C18.5947 3.09008 18.4074 2.96494 18.2013 2.87956C17.9951 2.79419 17.7742 2.75024 17.5511 2.75024C17.328 2.75024 17.1071 2.79419 16.901 2.87956C16.6949 2.96494 16.5076 3.09008 16.3498 3.24784V3.24784Z" stroke="black" stroke-opacity="0.5" stroke-width="2.66667" stroke-linecap="round" stroke-linejoin="round"/>
<path d="M17.4168 13.7502V16.5002C17.4168 16.9864 17.2236 17.4527 16.8798 17.7965C16.536 18.1403 16.0696 18.3335 15.5834 18.3335H5.50008C5.01385 18.3335 4.54754 18.1403 4.20372 17.7965C3.8599 17.4527 3.66675 16.9864 3.66675 16.5002V6.41683C3.66675 5.9306 3.8599 5.46428 4.20372 5.12047C4.54754 4.77665 5.01385 4.5835 5.50008 4.5835H8.25008" stroke="black" stroke-opacity="0.5" stroke-width="2.66667" stroke-linecap="round" stroke-linejoin="round"/>
</svg>